<?xml version="1.0" encoding="UTF-8" standalone="no"?>
<svg
   xmlns:dc="http://purl.org/dc/elements/1.1/"
   xmlns:cc="http://creativecommons.org/ns#"
   xmlns:rdf="http://www.w3.org/1999/02/22-rdf-syntax-ns#"
   xmlns:svg="http://www.w3.org/2000/svg"
   xmlns="http://www.w3.org/2000/svg"
   xmlns:sodipodi="http://sodipodi.sourceforge.net/DTD/sodipodi-0.dtd"
   xmlns:inkscape="http://www.inkscape.org/namespaces/inkscape"
   height="500"
   version="1.1"
   width="940"
   viewBox="0 0 940 500"
   preserveAspectRatio="xMinYMin"
   style="overflow:hidden"
   id="svg3109"
   inkscape:version="0.48.4 r9939"
   sodipodi:docname="fullcourt.svg"
   inkscape:export-filename="C:\Users\niortenzio\Solutions\sportsvu\image\fullcourt.png"
   inkscape:export-xdpi="81.059998"
   inkscape:export-ydpi="81.059998">
  <defs
     id="defs32" />
  <rect
     x="10"
     y="-54.000008"
     width="70"
     height="40"
     r="2"
     rx="2"
     ry="2"
     title="Left Corner 3"
     class="detail-box"
     style="fill:#ffffff;fill-opacity:0.6;stroke:none;display:none"
     id="rect3165" />
  <g
     inkscape:groupmode="layer"
     id="layer1"
     inkscape:label="Layer"
     transform="translate(0,-64)" />
  <g
     id="g3915"
     transform="matrix(1,0,0,1.002735,0,-1.3656591)">
    <path
       inkscape:connector-curvature="0"
       id="path3117"
       style="fill:none;stroke:#c6c6c6;stroke-width:4.14810991;stroke-opacity:1"
       d="m 937.92594,2.7893352 0,494.4547148 -467.90681,0 0,-494.4547148 467.90681,0" />
    <path
       inkscape:connector-curvature="0"
       id="path3119"
       style="fill:none;stroke:#c6c6c6;stroke-width:4.02953625;stroke-opacity:1"
       d="m 937.98523,2.8963983 0,28.1593717 -139.49507,0 0,-28.1593717 z" />
    <path
       inkscape:connector-curvature="0"
       id="path3121"
       style="fill:none;stroke:#c6c6c6;stroke-width:4.01749039;stroke-opacity:1"
       d="m 937.99125,468.97159 0,27.98886 -139.50711,0 0,-27.98886 z" />
    <path
       inkscape:connector-curvature="0"
       id="path3123"
       style="fill:none;stroke:#c6c6c6;stroke-width:4.14810991;stroke-opacity:1"
       d="m 797.71982,30.996483 a 236.44227,236.44227 0 0 0 0,438.040417" />
    <path
       inkscape:connector-curvature="0"
       id="path3125"
       style="fill:none;stroke:#c6c6c6;stroke-width:4.14810991;stroke-opacity:1"
       d="m 937.92594,170.37298 -189.15382,0 0,159.28742 189.15382,0 z" />
    <path
       inkscape:connector-curvature="0"
       id="path3127"
       style="fill:none;stroke:#c6c6c6;stroke-width:4.14810991;stroke-opacity:1"
       d="m 937.92594,190.28391 -189.15382,0 0,119.46557 189.15382,0 z" />
    <path
       inkscape:connector-curvature="0"
       id="path3129"
       style="fill:none;stroke:#c6c6c6;stroke-width:4.14810991;stroke-opacity:1"
       d="m 748.77212,190.28391 a 59.732785,59.732785 0 1 0 0,119.46557 59.732785,59.732785 0 0 0 0,-119.46557 z" />
    <path
       inkscape:connector-curvature="0"
       id="path3131"
       style="fill:none;stroke:#c6c6c6;stroke-width:4.14810991;stroke-opacity:1"
       d="m 470.01913,190.28391 a 59.732785,59.732785 0 0 1 0,119.46557 l 0,-59.73279 z" />
    <path
       inkscape:connector-curvature="0"
       id="path3133"
       style="fill:none;stroke:#c6c6c6;stroke-width:4.14810991;stroke-opacity:1"
       d="m 470.01913,230.10576 a 19.91093,19.91093 0 0 1 0,39.82186 l 0,-19.91093 z" />
    <path
       inkscape:connector-curvature="0"
       id="path3135"
       style="fill:none;stroke:#c6c6c6;stroke-width:4.14810991;stroke-opacity:1"
       d="m 898.10409,220.1503 0,59.73278" />
    <path
       inkscape:connector-curvature="0"
       id="path3137"
       style="fill:none;stroke:#c6c6c6;stroke-width:4.14810991;stroke-opacity:1"
       d="m 898.10409,250.01669 -4.97774,0" />
    <path
       inkscape:connector-curvature="0"
       id="path3139"
       style="fill:none;stroke:#c6c6c6;stroke-width:4.14810991;stroke-opacity:1"
       d="m 885.65976,242.55009 a 7.4666,7.4666 0 1 0 0,14.9332 7.4666,7.4666 0 0 0 0,-14.9332 z" />
    <path
       inkscape:connector-curvature="0"
       id="path3141"
       style="fill:none;stroke:#c6c6c6;stroke-width:4.14810991;stroke-linecap:round;stroke-opacity:1"
       d="m 659.17295,32.996483 0,-29.8663918" />
    <path
       inkscape:connector-curvature="0"
       id="path3143"
       style="fill:none;stroke:#c6c6c6;stroke-width:4.14745951;stroke-linecap:round;stroke-opacity:1"
       d="m 659.17295,496.90268 0,-29.85703" />
    <path
       inkscape:connector-curvature="0"
       id="path3145"
       style="fill:none;stroke:#c6c6c6;stroke-width:4.14810991;stroke-opacity:1"
       d="m 937.92594,140.50659 -9.95546,0" />
    <path
       inkscape:connector-curvature="0"
       id="path3147"
       style="fill:none;stroke:#c6c6c6;stroke-width:4.14810991;stroke-opacity:1"
       d="m 937.92594,359.5268 -9.95546,0" />
    <path
       inkscape:connector-curvature="0"
       id="path3149"
       style="fill:none;stroke:#c6c6c6;stroke-width:4.14810991;stroke-opacity:1"
       d="m 868.23769,170.37298 0,-9.95546" />
    <path
       inkscape:connector-curvature="0"
       id="path3151"
       style="fill:none;stroke:#c6c6c6;stroke-width:4.14810991;stroke-opacity:1"
       d="m 858.28223,170.37298 0,-9.95546" />
    <path
       inkscape:connector-curvature="0"
       id="path3153"
       style="fill:none;stroke:#c6c6c6;stroke-width:4.14810991;stroke-opacity:1"
       d="m 828.41584,170.37298 0,-9.95546" />
    <path
       inkscape:connector-curvature="0"
       id="path3155"
       style="fill:none;stroke:#c6c6c6;stroke-width:4.14810991;stroke-opacity:1"
       d="m 798.54944,170.37298 0,-9.95546" />
    <path
       inkscape:connector-curvature="0"
       id="path3157"
       style="fill:none;stroke:#c6c6c6;stroke-width:4.14810991;stroke-opacity:1"
       d="m 868.23769,329.6604 0,9.95547" />
    <path
       inkscape:connector-curvature="0"
       id="path3159"
       style="fill:none;stroke:#c6c6c6;stroke-width:4.14810991;stroke-opacity:1"
       d="m 858.28223,329.6604 0,9.95547" />
    <path
       inkscape:connector-curvature="0"
       id="path3161"
       style="fill:none;stroke:#c6c6c6;stroke-width:4.14810991;stroke-opacity:1"
       d="m 828.41584,329.6604 0,9.95547" />
    <path
       inkscape:connector-curvature="0"
       id="path3163"
       style="fill:none;stroke:#c6c6c6;stroke-width:4.14810991;stroke-opacity:1"
       d="m 798.54944,329.6604 0,9.95547" />
    <path
       inkscape:connector-curvature="0"
       id="path3117-2"
       style="fill:none;stroke:#c6c6c6;stroke-width:4.14810991;stroke-opacity:1"
       d="m 2.0740557,497.21067 0,-494.454716 467.9068143,0 0,494.454716 -467.9068143,0" />
    <path
       inkscape:connector-curvature="0"
       id="path3119-7"
       style="fill:none;stroke:#c6c6c6;stroke-width:4.02953625;stroke-opacity:1"
       d="m 2.0147686,497.1036 0,-28.15937 139.4950714,0 0,28.15937 z" />
    <path
       inkscape:connector-curvature="0"
       id="path3121-7"
       style="fill:none;stroke:#c6c6c6;stroke-width:4.01749039;stroke-opacity:1"
       d="m 2.008746,31.02841 0,-27.988858 139.507114,0 0,27.988858 z" />
    <path
       inkscape:connector-curvature="0"
       id="path3123-9"
       style="fill:none;stroke:#c6c6c6;stroke-width:4.14810991;stroke-opacity:1"
       d="m 142.28018,469.00352 a 236.44227,236.44227 0 0 0 0,-438.040418" />
    <path
       inkscape:connector-curvature="0"
       id="path3125-3"
       style="fill:none;stroke:#c6c6c6;stroke-width:4.14810991;stroke-opacity:1"
       d="m 2.0740557,329.62702 189.1538143,0 0,-159.28742 -189.1538143,0 z" />
    <path
       inkscape:connector-curvature="0"
       id="path3127-1"
       style="fill:none;stroke:#c6c6c6;stroke-width:4.14810991;stroke-opacity:1"
       d="m 2.0740557,309.71609 189.1538143,0 0,-119.46556 -189.1538143,0 z" />
    <path
       inkscape:connector-curvature="0"
       id="path3129-9"
       style="fill:none;stroke:#c6c6c6;stroke-width:4.14810991;stroke-opacity:1"
       d="m 191.22787,309.71609 a 59.732784,59.732784 0 0 0 0,-119.46556 59.732784,59.732784 0 1 0 0,119.46556 z" />
    <path
       inkscape:connector-curvature="0"
       id="path3131-8"
       style="fill:none;stroke:#c6c6c6;stroke-width:4.14810991;stroke-opacity:1"
       d="m 469.98087,309.71609 a 59.732784,59.732784 0 1 1 0,-119.46556 l 0,59.73278 z" />
    <path
       inkscape:connector-curvature="0"
       id="path3133-6"
       style="fill:none;stroke:#c6c6c6;stroke-width:4.14810991;stroke-opacity:1"
       d="m 469.98087,269.89424 a 19.91093,19.91093 0 1 1 0,-39.82186 l 0,19.91093 z" />
    <path
       inkscape:connector-curvature="0"
       id="path3135-5"
       style="fill:none;stroke:#c6c6c6;stroke-width:4.14810991;stroke-opacity:1"
       d="m 41.895912,279.8497 0,-59.73278" />
    <path
       inkscape:connector-curvature="0"
       id="path3137-0"
       style="fill:none;stroke:#c6c6c6;stroke-width:4.14810991;stroke-opacity:1"
       d="m 41.895912,249.98331 4.977732,0" />
    <path
       inkscape:connector-curvature="0"
       id="path3139-2"
       style="fill:none;stroke:#c6c6c6;stroke-width:4.14810991;stroke-opacity:1"
       d="m 54.340242,257.44991 a 7.4666,7.4666 0 0 0 0,-14.9332 7.4666,7.4666 0 1 0 0,14.9332 z" />
    <path
       inkscape:connector-curvature="0"
       id="path3141-8"
       style="fill:none;stroke:#c6c6c6;stroke-width:4.14086294;stroke-linecap:round;stroke-opacity:1"
       d="m 280.82705,496.8723 0,-29.76211" />
    <path
       inkscape:connector-curvature="0"
       id="path3143-6"
       style="fill:none;stroke:#c6c6c6;stroke-width:4.14799976;stroke-linecap:round;stroke-miterlimit:4;stroke-opacity:1;stroke-dasharray:none"
       d="m 280.82705,32.963102 0,-29.866392" />
    <path
       inkscape:connector-curvature="0"
       id="path3145-0"
       style="fill:none;stroke:#c6c6c6;stroke-width:4.14810991;stroke-opacity:1"
       d="m 2.0740557,359.49341 9.9554643,0" />
    <path
       inkscape:connector-curvature="0"
       id="path3147-2"
       style="fill:none;stroke:#c6c6c6;stroke-width:4.14810991;stroke-opacity:1"
       d="m 2.0740557,140.47321 9.9554643,0" />
    <path
       inkscape:connector-curvature="0"
       id="path3149-4"
       style="fill:none;stroke:#c6c6c6;stroke-width:4.14810991;stroke-opacity:1"
       d="m 71.762304,329.62702 0,9.95547" />
    <path
       inkscape:connector-curvature="0"
       id="path3151-8"
       style="fill:none;stroke:#c6c6c6;stroke-width:4.14810991;stroke-opacity:1"
       d="m 81.717768,329.62702 0,9.95547" />
    <path
       inkscape:connector-curvature="0"
       id="path3153-6"
       style="fill:none;stroke:#c6c6c6;stroke-width:4.14810991;stroke-opacity:1"
       d="m 111.58416,329.62702 0,9.95547" />
    <path
       inkscape:connector-curvature="0"
       id="path3155-5"
       style="fill:none;stroke:#c6c6c6;stroke-width:4.14810991;stroke-opacity:1"
       d="m 141.45055,329.62702 0,9.95547" />
    <path
       inkscape:connector-curvature="0"
       id="path3157-0"
       style="fill:none;stroke:#c6c6c6;stroke-width:4.14810991;stroke-opacity:1"
       d="m 71.762304,170.3396 0,-9.95547" />
    <path
       inkscape:connector-curvature="0"
       id="path3159-9"
       style="fill:none;stroke:#c6c6c6;stroke-width:4.14810991;stroke-opacity:1"
       d="m 81.717768,170.3396 0,-9.95547" />
    <path
       inkscape:connector-curvature="0"
       id="path3161-0"
       style="fill:none;stroke:#c6c6c6;stroke-width:4.14810991;stroke-opacity:1"
       d="m 111.58416,170.3396 0,-9.95547" />
    <path
       inkscape:connector-curvature="0"
       id="path3163-0"
       style="fill:none;stroke:#c6c6c6;stroke-width:4.14810991;stroke-opacity:1"
       d="m 141.45055,170.3396 0,-9.95547" />
  </g>
</svg>
